<svg xmlns="http://www.w3.org/2000/svg" class="plot-d6a7b5" fill="currentColor" font-family="system-ui, sans-serif" font-size="10" text-anchor="middle" width="640" height="320" viewBox="0 0 640 320"><style>:where(.plot-d6a7b5) {
  --plot-background: white;
  display: block;
  height: auto;
  height: intrinsic;
  max-width: 100%;
}
:where(.plot-d6a7b5 text),
:where(.plot-d6a7b5 tspan) {
  white-space: pre;
}</style><g aria-label="y-grid" aria-hidden="true" stroke="currentColor" stroke-opacity="0.1"><line x1="55" x2="620" y1="280" y2="280"/><line x1="55" x2="620" y1="239.89914949093364" y2="239.89914949093364"/><line x1="55" x2="620" y1="199.79829898186728" y2="199.79829898186728"/><line x1="55" x2="620" y1="159.6974484728009" y2="159.6974484728009"/><line x1="55" x2="620" y1="119.59659796373454" y2="119.59659796373454"/><line x1="55" x2="620" y1="79.49574745466819" y2="79.49574745466819"/><line x1="55" x2="620" y1="39.394896945601815" y2="39.394896945601815"/></g><g aria-label="y-axis tick" aria-hidden="true" fill="none" stroke="currentColor"><path transform="translate(55,280)" d="M0,0L-6,0"/><path transform="translate(55,239.89914949093364)" d="M0,0L-6,0"/><path transform="translate(55,199.79829898186728)" d="M0,0L-6,0"/><path transform="translate(55,159.6974484728009)" d="M0,0L-6,0"/><path transform="translate(55,119.59659796373454)" d="M0,0L-6,0"/><path transform="translate(55,79.49574745466819)" d="M0,0L-6,0"/><path transform="translate(55,39.394896945601815)" d="M0,0L-6,0"/></g><g aria-label="y-axis tick label" text-anchor="end" font-variant="tabular-nums" transform="translate(-9,0)"><text y="0.32em" transform="translate(55,280)">0</text><text y="0.32em" transform="translate(55,239.89914949093364)">10</text><text y="0.32em" transform="translate(55,199.79829898186728)">20</text><text y="0.32em" transform="translate(55,159.6974484728009)">30</text><text y="0.32em" transform="translate(55,119.59659796373454)">40</text><text y="0.32em" transform="translate(55,79.49574745466819)">50</text><text y="0.32em" transform="translate(55,39.394896945601815)">60</text></g><g aria-label="y-axis label" text-anchor="start" transform="translate(-52,-17)"><text y="0.71em" transform="translate(55,20)">↑ AED (B)</text></g><g aria-label="x-axis tick" aria-hidden="true" fill="none" stroke="currentColor"><path transform="translate(55,280)" d="M0,0L0,6"/><path transform="translate(122.10868857793687,280)" d="M0,0L0,6"/><path transform="translate(189.21737715587375,280)" d="M0,0L0,6"/><path transform="translate(256.3260657338106,280)" d="M0,0L0,6"/><path transform="translate(323.61861373250895,280)" d="M0,0L0,6"/><path transform="translate(390.7273023104458,280)" d="M0,0L0,6"/><path transform="translate(457.8359908883827,280)" d="M0,0L0,6"/><path transform="translate(524.9446794663196,280)" d="M0,0L0,6"/><path transform="translate(592.2372274650179,280)" d="M0,0L0,6"/></g><g aria-label="x-axis tick label" font-variant="tabular-nums" transform="translate(0,9)"><text y="0.71em" transform="translate(55,280)">2017</text><text y="0.71em" transform="translate(122.10868857793687,280)">2018</text><text y="0.71em" transform="translate(189.21737715587375,280)">2019</text><text y="0.71em" transform="translate(256.3260657338106,280)">2020</text><text y="0.71em" transform="translate(323.61861373250895,280)">2021</text><text y="0.71em" transform="translate(390.7273023104458,280)">2022</text><text y="0.71em" transform="translate(457.8359908883827,280)">2023</text><text y="0.71em" transform="translate(524.9446794663196,280)">2024</text><text y="0.71em" transform="translate(592.2372274650179,280)">2025</text></g><g aria-label="x-axis label" text-anchor="end" transform="translate(17,37)"><text transform="translate(620,280)"> →</text></g><g aria-label="rule" stroke="#e5e7eb"><line x1="55" x2="620" y1="280" y2="280"/></g><g aria-label="area" fill="#92722a" fill-opacity="0.15"><path d="M55,222.925L60.7,224.822L65.848,214.313L71.547,216.913L77.063,215.894L82.763,231.535L88.279,211.744L93.978,216.236L99.678,223.632L105.194,212.636L110.893,221.432L116.409,221.938L122.109,211.16L127.808,210.462L132.956,209.786L138.656,207.427L144.172,211.96L149.871,217.561L155.387,210.844L161.087,219.05L166.787,204.179L172.302,211.179L178.002,211.396L183.518,208.719L189.217,200.288L194.917,211.399L200.065,186.332L205.765,199.139L211.281,206.427L216.98,215.813L222.496,193.733L228.196,209.091L233.895,202.601L239.411,194.244L245.111,206.803L250.626,206.851L256.326,199.768L262.026,200.738L267.358,202.364L273.057,222.433L278.573,211.609L284.273,199.552L289.788,195.77L295.488,177.126L301.188,171.512L306.704,187.147L312.403,180.165L317.919,190.683L323.619,187.638L329.318,190.011L334.466,162.492L340.166,169.598L345.682,165.868L351.381,160.204L356.897,184.76L362.597,161.175L368.296,164.818L373.812,162.798L379.512,155.659L385.028,165.12L390.727,171.995L396.427,173.437L401.575,132.045L407.275,162.274L412.79,167.262L418.49,154.86L424.006,156.733L429.705,147.228L435.405,145.557L440.921,165.686L446.621,155.594L452.136,150.237L457.836,139.731L463.536,160.067L468.684,136.819L474.383,157.112L479.899,119.861L485.599,168.644L491.115,164.131L496.814,132.887L502.514,145.33L508.03,126.79L513.729,116.963L519.245,103.842L524.945,114.405L530.644,126.651L535.976,108.735L541.676,130.88L547.192,89.369L552.891,116.017L558.407,77.146L564.107,87.196L569.806,89.364L575.322,71.348L581.022,78.242L586.538,97.636L592.237,58.879L597.937,50.22L603.085,38.23L608.785,44.689L614.3,20L620,23.942L620,280L614.3,280L608.785,280L603.085,280L597.937,280L592.237,280L586.538,280L581.022,280L575.322,280L569.806,280L564.107,280L558.407,280L552.891,280L547.192,280L541.676,280L535.976,280L530.644,280L524.945,280L519.245,280L513.729,280L508.03,280L502.514,280L496.814,280L491.115,280L485.599,280L479.899,280L474.383,280L468.684,280L463.536,280L457.836,280L452.136,280L446.621,280L440.921,280L435.405,280L429.705,280L424.006,280L418.49,280L412.79,280L407.275,280L401.575,280L396.427,280L390.727,280L385.028,280L379.512,280L373.812,280L368.296,280L362.597,280L356.897,280L351.381,280L345.682,280L340.166,280L334.466,280L329.318,280L323.619,280L317.919,280L312.403,280L306.704,280L301.188,280L295.488,280L289.788,280L284.273,280L278.573,280L273.057,280L267.358,280L262.026,280L256.326,280L250.626,280L245.111,280L239.411,280L233.895,280L228.196,280L222.496,280L216.98,280L211.281,280L205.765,280L200.065,280L194.917,280L189.217,280L183.518,280L178.002,280L172.302,280L166.787,280L161.087,280L155.387,280L149.871,280L144.172,280L138.656,280L132.956,280L127.808,280L122.109,280L116.409,280L110.893,280L105.194,280L99.678,280L93.978,280L88.279,280L82.763,280L77.063,280L71.547,280L65.848,280L60.7,280L55,280Z"/></g><g aria-label="line" fill="none" stroke="#92722a" stroke-width="2" stroke-linejoin="round" stroke-linecap="round"><path d="M55,222.925L60.7,224.822L65.848,214.313L71.547,216.913L77.063,215.894L82.763,231.535L88.279,211.744L93.978,216.236L99.678,223.632L105.194,212.636L110.893,221.432L116.409,221.938L122.109,211.16L127.808,210.462L132.956,209.786L138.656,207.427L144.172,211.96L149.871,217.561L155.387,210.844L161.087,219.05L166.787,204.179L172.302,211.179L178.002,211.396L183.518,208.719L189.217,200.288L194.917,211.399L200.065,186.332L205.765,199.139L211.281,206.427L216.98,215.813L222.496,193.733L228.196,209.091L233.895,202.601L239.411,194.244L245.111,206.803L250.626,206.851L256.326,199.768L262.026,200.738L267.358,202.364L273.057,222.433L278.573,211.609L284.273,199.552L289.788,195.77L295.488,177.126L301.188,171.512L306.704,187.147L312.403,180.165L317.919,190.683L323.619,187.638L329.318,190.011L334.466,162.492L340.166,169.598L345.682,165.868L351.381,160.204L356.897,184.76L362.597,161.175L368.296,164.818L373.812,162.798L379.512,155.659L385.028,165.12L390.727,171.995L396.427,173.437L401.575,132.045L407.275,162.274L412.79,167.262L418.49,154.86L424.006,156.733L429.705,147.228L435.405,145.557L440.921,165.686L446.621,155.594L452.136,150.237L457.836,139.731L463.536,160.067L468.684,136.819L474.383,157.112L479.899,119.861L485.599,168.644L491.115,164.131L496.814,132.887L502.514,145.33L508.03,126.79L513.729,116.963L519.245,103.842L524.945,114.405L530.644,126.651L535.976,108.735L541.676,130.88L547.192,89.369L552.891,116.017L558.407,77.146L564.107,87.196L569.806,89.364L575.322,71.348L581.022,78.242L586.538,97.636L592.237,58.879L597.937,50.22L603.085,38.23L608.785,44.689L614.3,20L620,23.942"/></g></svg>