<svg xmlns="http://www.w3.org/2000/svg" class="plot-d6a7b5" fill="currentColor" font-family="system-ui, sans-serif" font-size="10" text-anchor="middle" width="640" height="320" viewBox="0 0 640 320"><style>:where(.plot-d6a7b5) {
  --plot-background: white;
  display: block;
  height: auto;
  height: intrinsic;
  max-width: 100%;
}
:where(.plot-d6a7b5 text),
:where(.plot-d6a7b5 tspan) {
  white-space: pre;
}</style><g aria-label="y-axis tick" aria-hidden="true" fill="none" stroke="currentColor" transform="translate(0,11.5)"><path transform="translate(130,26)" d="M0,0L-6,0"/><path transform="translate(130,51)" d="M0,0L-6,0"/><path transform="translate(130,76)" d="M0,0L-6,0"/><path transform="translate(130,101)" d="M0,0L-6,0"/><path transform="translate(130,126)" d="M0,0L-6,0"/><path transform="translate(130,151)" d="M0,0L-6,0"/><path transform="translate(130,176)" d="M0,0L-6,0"/><path transform="translate(130,201)" d="M0,0L-6,0"/><path transform="translate(130,226)" d="M0,0L-6,0"/><path transform="translate(130,251)" d="M0,0L-6,0"/></g><g aria-label="y-axis tick label" text-anchor="end" transform="translate(-9,11.5)"><text y="0.32em" transform="translate(130,26)">China</text><text y="0.32em" transform="translate(130,51)">Areas, nes</text><text y="0.32em" transform="translate(130,76)">India</text><text y="0.32em" transform="translate(130,101)">United States of America</text><text y="0.32em" transform="translate(130,126)">Japan</text><text y="0.32em" transform="translate(130,151)">Korea, Republic of</text><text y="0.32em" transform="translate(130,176)">United Arab Emirates</text><text y="0.32em" transform="translate(130,201)">Italy</text><text y="0.32em" transform="translate(130,226)">France</text><text y="0.32em" transform="translate(130,251)">Saudi Arabia</text></g><g aria-label="y-axis label" transform="translate(-127,0)"><text y="0.71em" transform="translate(130,150) rotate(-90)"/></g><g aria-label="x-grid" aria-hidden="true" stroke="currentColor" stroke-opacity="0.1"><line x1="130" x2="130" y1="20" y2="280"/><line x1="200.52487735668092" x2="200.52487735668092" y1="20" y2="280"/><line x1="271.04975471336184" x2="271.04975471336184" y1="20" y2="280"/><line x1="341.57463207004275" x2="341.57463207004275" y1="20" y2="280"/><line x1="412.0995094267236" x2="412.0995094267236" y1="20" y2="280"/><line x1="482.6243867834045" x2="482.6243867834045" y1="20" y2="280"/><line x1="553.1492641400854" x2="553.1492641400854" y1="20" y2="280"/></g><g aria-label="x-axis tick" aria-hidden="true" fill="none" stroke="currentColor"><path transform="translate(130,280)" d="M0,0L0,6"/><path transform="translate(200.52487735668092,280)" d="M0,0L0,6"/><path transform="translate(271.04975471336184,280)" d="M0,0L0,6"/><path transform="translate(341.57463207004275,280)" d="M0,0L0,6"/><path transform="translate(412.0995094267236,280)" d="M0,0L0,6"/><path transform="translate(482.6243867834045,280)" d="M0,0L0,6"/><path transform="translate(553.1492641400854,280)" d="M0,0L0,6"/></g><g aria-label="x-axis tick label" font-variant="tabular-nums" transform="translate(0,9)"><text y="0.71em" transform="translate(130,280)">0</text><text y="0.71em" transform="translate(200.52487735668092,280)">500</text><text y="0.71em" transform="translate(271.04975471336184,280)">1,000</text><text y="0.71em" transform="translate(341.57463207004275,280)">1,500</text><text y="0.71em" transform="translate(412.0995094267236,280)">2,000</text><text y="0.71em" transform="translate(482.6243867834045,280)">2,500</text><text y="0.71em" transform="translate(553.1492641400854,280)">3,000</text></g><g aria-label="x-axis label" text-anchor="end" transform="translate(17,37)"><text transform="translate(620,280)">AED (B) →</text></g><g aria-label="rule" stroke="#e5e7eb"><line x1="130" x2="130" y1="20" y2="280"/></g><g aria-label="bar" fill="#92722a"><rect x="130" width="490" y="26" height="23"/><rect x="130" width="326.6527942693548" y="51" height="23"/><rect x="130" width="272.82480049254684" y="76" height="23"/><rect x="130" width="229.85309243619656" y="101" height="23"/><rect x="130" width="213.545729408728" y="126" height="23"/><rect x="130" width="170.9894624983923" y="151" height="23"/><rect x="130" width="148.05689478837314" y="176" height="23"/><rect x="130" width="130.47357521615066" y="201" height="23"/><rect x="130" width="116.01980374271994" y="226" height="23"/><rect x="130" width="115.01081968493867" y="251" height="23"/></g><g aria-label="tip" fill="var(--plot-background)" stroke="currentColor" pointer-events="none" text-anchor="start" transform="translate(0,11.5)"/></svg>